<svg width="25" height="24" viewBox="0 0 25 24" fill="none" xmlns="http://www.w3.org/2000/svg">
<path d="M22.2856 12C22.2856 6.49 17.7956 2 12.2856 2C6.77564 2 2.28564 6.49 2.28564 12C2.28564 14.9 3.53564 17.51 5.51564 19.34C5.51564 19.35 5.51564 19.35 5.50564 19.36C5.60564 19.46 5.72564 19.54 5.82564 19.63C5.88564 19.68 5.93564 19.73 5.99564 19.77C6.17564 19.92 6.37564 20.06 6.56564 20.2C6.63564 20.25 6.69564 20.29 6.76564 20.34C6.95564 20.47 7.15564 20.59 7.36564 20.7C7.43564 20.74 7.51564 20.79 7.58564 20.83C7.78564 20.94 7.99564 21.04 8.21564 21.13C8.29564 21.17 8.37564 21.21 8.45564 21.24C8.67564 21.33 8.89564 21.41 9.11564 21.48C9.19564 21.51 9.27564 21.54 9.35564 21.56C9.59564 21.63 9.83564 21.69 10.0756 21.75C10.1456 21.77 10.2156 21.79 10.2956 21.8C10.5756 21.86 10.8556 21.9 11.1456 21.93C11.1856 21.93 11.2256 21.94 11.2656 21.95C11.6056 21.98 11.9456 22 12.2856 22C12.6256 22 12.9656 21.98 13.2956 21.95C13.3356 21.95 13.3756 21.94 13.4156 21.93C13.7056 21.9 13.9856 21.86 14.2656 21.8C14.3356 21.79 14.4056 21.76 14.4856 21.75C14.7256 21.69 14.9756 21.64 15.2056 21.56C15.2856 21.53 15.3656 21.5 15.4456 21.48C15.6656 21.4 15.8956 21.33 16.1056 21.24C16.1856 21.21 16.2656 21.17 16.3456 21.13C16.5556 21.04 16.7656 20.94 16.9756 20.83C17.0556 20.79 17.1256 20.74 17.1956 20.7C17.3956 20.58 17.5956 20.47 17.7956 20.34C17.8656 20.3 17.9256 20.25 17.9956 20.2C18.1956 20.06 18.3856 19.92 18.5656 19.77C18.6256 19.72 18.6756 19.67 18.7356 19.63C18.8456 19.54 18.9556 19.45 19.0556 19.36C19.0556 19.35 19.0556 19.35 19.0456 19.34C21.0356 17.51 22.2856 14.9 22.2856 12ZM17.2256 16.97C14.5156 15.15 10.0756 15.15 7.34564 16.97C6.90564 17.26 6.54564 17.6 6.24564 17.97C4.72564 16.43 3.78564 14.32 3.78564 12C3.78564 7.31 7.59564 3.5 12.2856 3.5C16.9756 3.5 20.7856 7.31 20.7856 12C20.7856 14.32 19.8456 16.43 18.3256 17.97C18.0356 17.6 17.6656 17.26 17.2256 16.97Z" fill="white"/>
<path d="M12.2856 6.93005C10.2156 6.93005 8.53564 8.61005 8.53564 10.6801C8.53564 12.7101 10.1256 14.3601 12.2356 14.4201C12.2656 14.4201 12.3056 14.4201 12.3256 14.4201C12.3456 14.4201 12.3756 14.4201 12.3956 14.4201C12.4056 14.4201 12.4156 14.4201 12.4156 14.4201C14.4356 14.3501 16.0256 12.7101 16.0356 10.6801C16.0356 8.61005 14.3556 6.93005 12.2856 6.93005Z" fill="white"/>
</svg>
