<svg width="20" height="20" viewBox="0 0 20 20" fill="none" xmlns="http://www.w3.org/2000/svg">
<path d="M18.3332 9.37496H16.6332C16.3332 6.19996 13.7998 3.65829 10.6248 3.36663V1.66663C10.6248 1.32496 10.3415 1.04163 9.99984 1.04163C9.65817 1.04163 9.37484 1.32496 9.37484 1.66663V3.36663C6.19984 3.66663 3.65817 6.19996 3.3665 9.37496H1.6665C1.32484 9.37496 1.0415 9.65829 1.0415 9.99996C1.0415 10.3416 1.32484 10.625 1.6665 10.625H3.3665C3.6665 13.8 6.19984 16.3416 9.37484 16.6333V18.3333C9.37484 18.675 9.65817 18.9583 9.99984 18.9583C10.3415 18.9583 10.6248 18.675 10.6248 18.3333V16.6333C13.7998 16.3333 16.3415 13.8 16.6332 10.625H18.3332C18.6748 10.625 18.9582 10.3416 18.9582 9.99996C18.9582 9.65829 18.6748 9.37496 18.3332 9.37496ZM9.99984 12.6C8.5665 12.6 7.39984 11.4333 7.39984 9.99996C7.39984 8.56663 8.5665 7.39996 9.99984 7.39996C11.4332 7.39996 12.5998 8.56663 12.5998 9.99996C12.5998 11.4333 11.4332 12.6 9.99984 12.6Z" fill="#221F1B"/>
</svg>
