<svg width="25" height="24" viewBox="0 0 25 24" fill="none" xmlns="http://www.w3.org/2000/svg">
<path d="M19.5256 5.58006H19.1256L15.7456 2.20006C15.4756 1.93006 15.0356 1.93006 14.7556 2.20006C14.4856 2.47006 14.4856 2.91006 14.7556 3.19006L17.1456 5.58006H7.42564L9.81564 3.19006C10.0856 2.92006 10.0856 2.48006 9.81564 2.20006C9.54564 1.93006 9.10564 1.93006 8.82564 2.20006L5.45564 5.58006H5.05564C4.15564 5.58006 2.28564 5.58006 2.28564 8.14006C2.28564 9.11006 2.48564 9.75006 2.90564 10.1701C3.14564 10.4201 3.43564 10.5501 3.74564 10.6201C4.03564 10.6901 4.34564 10.7001 4.64564 10.7001H19.9256C20.2356 10.7001 20.5256 10.6801 20.8056 10.6201C21.6456 10.4201 22.2856 9.82006 22.2856 8.14006C22.2856 5.58006 20.4156 5.58006 19.5256 5.58006Z" fill="white"/>
<path d="M19.3356 12H5.15556C4.53556 12 4.06556 12.55 4.16556 13.16L5.00556 18.3C5.28556 20.02 6.03556 22 9.36556 22H14.9756C18.3456 22 18.9456 20.31 19.3056 18.42L20.3156 13.19C20.4356 12.57 19.9656 12 19.3356 12ZM10.8956 18.45C10.8956 18.84 10.5856 19.15 10.2056 19.15C9.81556 19.15 9.50556 18.84 9.50556 18.45V15.15C9.50556 14.77 9.81556 14.45 10.2056 14.45C10.5856 14.45 10.8956 14.77 10.8956 15.15V18.45ZM15.1756 18.45C15.1756 18.84 14.8656 19.15 14.4756 19.15C14.0956 19.15 13.7756 18.84 13.7756 18.45V15.15C13.7756 14.77 14.0956 14.45 14.4756 14.45C14.8656 14.45 15.1756 14.77 15.1756 15.15V18.45Z" fill="white"/>
</svg>
