<svg width="24" height="25" viewBox="0 0 24 25" fill="none" xmlns="http://www.w3.org/2000/svg">
<path d="M15.0899 21.17C15.2799 21.17 15.4699 21.1 15.6199 20.95C15.9099 20.66 15.9099 20.18 15.6199 19.89L9.0999 13.37C8.6199 12.89 8.6199 12.11 9.0999 11.63L15.6199 5.11002C15.9099 4.82002 15.9099 4.34002 15.6199 4.05002C15.3299 3.76002 14.8499 3.76002 14.5599 4.05002L8.0399 10.57C7.5299 11.08 7.2399 11.77 7.2399 12.5C7.2399 13.23 7.5199 13.92 8.0399 14.43L14.5599 20.95C14.7099 21.09 14.8999 21.17 15.0899 21.17Z" fill="white"/>
</svg>
